<svg xmlns="http://www.w3.org/2000/svg" viewBox="0 0 576 582" width="576" height="582" font-family="'Segoe UI', Arial, sans-serif">
<rect width="100%" height="100%" fill="#f8f8f8" rx="12"/>
<rect x="110" y="40" width="396" height="28" rx="4" fill="#444" />
<text x="308" y="58" text-anchor="middle" fill="#fff" font-size="13" font-weight="600" letter-spacing="3">SCREEN</text>
<text x="126" y="100" text-anchor="middle" font-size="13" fill="#666" font-weight="600">1</text>
<text x="178" y="100" text-anchor="middle" font-size="13" fill="#666" font-weight="600">2</text>
<text x="230" y="100" text-anchor="middle" font-size="13" fill="#666" font-weight="600">3</text>
<text x="282" y="100" text-anchor="middle" font-size="13" fill="#666" font-weight="600">4</text>
<text x="334" y="100" text-anchor="middle" font-size="13" fill="#666" font-weight="600">5</text>
<text x="386" y="100" text-anchor="middle" font-size="13" fill="#666" font-weight="600">6</text>
<text x="438" y="100" text-anchor="middle" font-size="13" fill="#666" font-weight="600">7</text>
<text x="490" y="100" text-anchor="middle" font-size="13" fill="#666" font-weight="600">8</text>
<text x="76" y="141" text-anchor="middle" font-size="14" fill="#555" font-weight="600">Row A</text>
<circle cx="126" cy="136" r="16" fill="#b8d4f0" stroke="#5a9bd5" stroke-width="1.5"/>
<circle cx="178" cy="136" r="16" fill="#b8d4f0" stroke="#5a9bd5" stroke-width="1.5"/>
<circle cx="230" cy="136" r="16" fill="#b8d4f0" stroke="#5a9bd5" stroke-width="1.5"/>
<circle cx="282" cy="136" r="16" fill="#b8d4f0" stroke="#5a9bd5" stroke-width="1.5"/>
<circle cx="334" cy="136" r="16" fill="#b8d4f0" stroke="#5a9bd5" stroke-width="1.5"/>
<circle cx="386" cy="136" r="16" fill="#b8d4f0" stroke="#5a9bd5" stroke-width="1.5"/>
<circle cx="438" cy="136" r="16" fill="#b8d4f0" stroke="#5a9bd5" stroke-width="1.5"/>
<circle cx="490" cy="136" r="16" fill="#b8d4f0" stroke="#5a9bd5" stroke-width="1.5"/>
<text x="76" y="193" text-anchor="middle" font-size="14" fill="#555" font-weight="600">Row B</text>
<circle cx="126" cy="188" r="16" fill="#b8d4f0" stroke="#5a9bd5" stroke-width="1.5"/>
<circle cx="178" cy="188" r="16" fill="#b8d4f0" stroke="#5a9bd5" stroke-width="1.5"/>
<circle cx="230" cy="188" r="16" fill="#b8d4f0" stroke="#5a9bd5" stroke-width="1.5"/>
<circle cx="282" cy="188" r="16" fill="#b8d4f0" stroke="#5a9bd5" stroke-width="1.5"/>
<circle cx="334" cy="188" r="16" fill="#b8d4f0" stroke="#5a9bd5" stroke-width="1.5"/>
<circle cx="386" cy="188" r="16" fill="#b8d4f0" stroke="#5a9bd5" stroke-width="1.5"/>
<circle cx="438" cy="188" r="16" fill="#b8d4f0" stroke="#5a9bd5" stroke-width="1.5"/>
<circle cx="490" cy="188" r="16" fill="#b8d4f0" stroke="#5a9bd5" stroke-width="1.5"/>
<text x="76" y="245" text-anchor="middle" font-size="14" fill="#555" font-weight="600">Row C</text>
<circle cx="126" cy="240" r="16" fill="#b8d4f0" stroke="#5a9bd5" stroke-width="1.5"/>
<circle cx="178" cy="240" r="16" fill="#b8d4f0" stroke="#5a9bd5" stroke-width="1.5"/>
<circle cx="230" cy="240" r="16" fill="#b8d4f0" stroke="#5a9bd5" stroke-width="1.5"/>
<circle cx="282" cy="240" r="16" fill="#fce4b8" stroke="#e6a817" stroke-width="1.5"/>
<text x="282" y="245" text-anchor="middle" font-size="15" fill="#c48800">★</text>
<circle cx="334" cy="240" r="16" fill="#fce4b8" stroke="#e6a817" stroke-width="1.5"/>
<text x="334" y="245" text-anchor="middle" font-size="15" fill="#c48800">★</text>
<circle cx="386" cy="240" r="16" fill="#b8d4f0" stroke="#5a9bd5" stroke-width="1.5"/>
<circle cx="438" cy="240" r="16" fill="#b8d4f0" stroke="#5a9bd5" stroke-width="1.5"/>
<circle cx="490" cy="240" r="16" fill="#b8d4f0" stroke="#5a9bd5" stroke-width="1.5"/>
<text x="76" y="297" text-anchor="middle" font-size="14" fill="#555" font-weight="600">Row D</text>
<circle cx="126" cy="292" r="16" fill="#b8d4f0" stroke="#5a9bd5" stroke-width="1.5"/>
<circle cx="178" cy="292" r="16" fill="#b8d4f0" stroke="#5a9bd5" stroke-width="1.5"/>
<circle cx="230" cy="292" r="16" fill="#fce4b8" stroke="#e6a817" stroke-width="1.5"/>
<text x="230" y="297" text-anchor="middle" font-size="15" fill="#c48800">★</text>
<circle cx="282" cy="292" r="16" fill="#fce4b8" stroke="#e6a817" stroke-width="1.5"/>
<text x="282" y="297" text-anchor="middle" font-size="15" fill="#c48800">★</text>
<circle cx="334" cy="292" r="16" fill="#fce4b8" stroke="#e6a817" stroke-width="1.5"/>
<text x="334" y="297" text-anchor="middle" font-size="15" fill="#c48800">★</text>
<circle cx="386" cy="292" r="16" fill="#fce4b8" stroke="#e6a817" stroke-width="1.5"/>
<text x="386" y="297" text-anchor="middle" font-size="15" fill="#c48800">★</text>
<circle cx="438" cy="292" r="16" fill="#b8d4f0" stroke="#5a9bd5" stroke-width="1.5"/>
<circle cx="490" cy="292" r="16" fill="#b8d4f0" stroke="#5a9bd5" stroke-width="1.5"/>
<text x="76" y="349" text-anchor="middle" font-size="14" fill="#555" font-weight="600">Row E</text>
<circle cx="126" cy="344" r="16" fill="#b8d4f0" stroke="#5a9bd5" stroke-width="1.5"/>
<circle cx="178" cy="344" r="16" fill="#b8d4f0" stroke="#5a9bd5" stroke-width="1.5"/>
<circle cx="230" cy="344" r="16" fill="#fce4b8" stroke="#e6a817" stroke-width="1.5"/>
<text x="230" y="349" text-anchor="middle" font-size="15" fill="#c48800">★</text>
<circle cx="282" cy="344" r="16" fill="#fce4b8" stroke="#e6a817" stroke-width="1.5"/>
<text x="282" y="349" text-anchor="middle" font-size="15" fill="#c48800">★</text>
<circle cx="334" cy="344" r="16" fill="#fce4b8" stroke="#e6a817" stroke-width="1.5"/>
<text x="334" y="349" text-anchor="middle" font-size="15" fill="#c48800">★</text>
<circle cx="386" cy="344" r="16" fill="#fce4b8" stroke="#e6a817" stroke-width="1.5"/>
<text x="386" y="349" text-anchor="middle" font-size="15" fill="#c48800">★</text>
<circle cx="438" cy="344" r="16" fill="#b8d4f0" stroke="#5a9bd5" stroke-width="1.5"/>
<circle cx="490" cy="344" r="16" fill="#b8d4f0" stroke="#5a9bd5" stroke-width="1.5"/>
<text x="76" y="401" text-anchor="middle" font-size="14" fill="#555" font-weight="600">Row F</text>
<rect x="108" y="380" width="36" height="32" rx="6" fill="#c8e6c9" stroke="#43a047" stroke-width="1.5"/>
<text x="126" y="402" text-anchor="middle" font-size="17">♿</text>
<circle cx="178" cy="396" r="16" fill="#d1c4e9" stroke="#7e57c2" stroke-width="1.5"/>
<text x="178" y="402" text-anchor="middle" font-size="16" font-weight="700" fill="#5e35b1">+</text>
<circle cx="230" cy="396" r="16" fill="#b8d4f0" stroke="#5a9bd5" stroke-width="1.5"/>
<circle cx="282" cy="396" r="16" fill="#b8d4f0" stroke="#5a9bd5" stroke-width="1.5"/>
<circle cx="334" cy="396" r="16" fill="#b8d4f0" stroke="#5a9bd5" stroke-width="1.5"/>
<circle cx="386" cy="396" r="16" fill="#b8d4f0" stroke="#5a9bd5" stroke-width="1.5"/>
<circle cx="438" cy="396" r="16" fill="#d1c4e9" stroke="#7e57c2" stroke-width="1.5"/>
<text x="438" y="402" text-anchor="middle" font-size="16" font-weight="700" fill="#5e35b1">+</text>
<rect x="472" y="380" width="36" height="32" rx="6" fill="#c8e6c9" stroke="#43a047" stroke-width="1.5"/>
<text x="490" y="402" text-anchor="middle" font-size="17">♿</text>
<line x1="126" y1="444" x2="126" y2="460" stroke="#999" stroke-width="1.5" stroke-dasharray="4,3"/>
<text x="126" y="474" text-anchor="middle" font-size="11" fill="#999">aisle</text>
<line x1="308" y1="444" x2="308" y2="460" stroke="#999" stroke-width="1.5" stroke-dasharray="4,3"/>
<text x="308" y="474" text-anchor="middle" font-size="11" fill="#999">aisle</text>
<line x1="490" y1="444" x2="490" y2="460" stroke="#999" stroke-width="1.5" stroke-dasharray="4,3"/>
<text x="490" y="474" text-anchor="middle" font-size="11" fill="#999">aisle</text>
<circle cx="90" cy="512" r="10" fill="#b8d4f0" stroke="#5a9bd5" stroke-width="1.2"/>
<text x="106" y="516" font-size="12" fill="#555">Standard seat</text>
<circle cx="250" cy="512" r="10" fill="#fce4b8" stroke="#e6a817" stroke-width="1.2"/>
<text x="250" y="516" text-anchor="middle" font-size="11" fill="#c48800">★</text>
<text x="266" y="516" font-size="12" fill="#555">Premium seat</text>
<rect x="398" y="502" width="24" height="20" rx="4" fill="#c8e6c9" stroke="#43a047" stroke-width="1.2"/>
<text x="410" y="516" text-anchor="middle" font-size="12">♿</text>
<text x="426" y="516" font-size="12" fill="#555">Wheelchair space</text>
<circle cx="570" cy="512" r="10" fill="#d1c4e9" stroke="#7e57c2" stroke-width="1.2"/>
<text x="570" y="516" text-anchor="middle" font-size="12" font-weight="700" fill="#5e35b1">+</text>
<text x="586" y="516" font-size="12" fill="#555">Companion seat</text>
</svg>
