<svg xmlns="http://www.w3.org/2000/svg" viewBox="0 0 526 438" width="526" height="438" font-family="Arial, Helvetica, sans-serif">
<rect width="526" height="438" fill="#FFFFFF"/>

<!-- Title -->
<text x="263" y="25" text-anchor="middle" font-size="16" font-weight="bold" fill="#374151">Starlight Cinema - Seating Plan</text>

<!-- Screen -->
<rect x="50" y="42" width="426" height="14" rx="3" fill="#374151" opacity="0.7"/>
<text x="263" y="53" text-anchor="middle" font-size="10" fill="white" font-weight="bold">SCREEN</text>
<text x="98" y="89" text-anchor="middle" font-size="12" font-weight="bold" fill="#374151">A</text>
<rect x="118" y="70" width="28" height="28" rx="4" fill="#2563EB" opacity="0.85"/><text x="132" y="85" text-anchor="middle" dominant-baseline="middle" font-size="14" fill="white">♿</text>
<rect x="152" y="70" width="28" height="28" rx="4" fill="#2563EB" opacity="0.85"/><text x="166" y="85" text-anchor="middle" dominant-baseline="middle" font-size="14" fill="white">♿</text>
<rect x="186" y="70" width="28" height="28" rx="4" fill="#60A5FA" opacity="0.85"/><text x="200" y="88" text-anchor="middle" font-size="9" fill="white" font-weight="bold">C</text>
<rect x="220" y="70" width="28" height="28" rx="4" fill="#60A5FA" opacity="0.85"/><text x="234" y="88" text-anchor="middle" font-size="9" fill="white" font-weight="bold">C</text>
<rect x="278" y="70" width="28" height="28" rx="4" fill="#60A5FA" opacity="0.85"/><text x="292" y="88" text-anchor="middle" font-size="9" fill="white" font-weight="bold">C</text>
<rect x="312" y="70" width="28" height="28" rx="4" fill="#60A5FA" opacity="0.85"/><text x="326" y="88" text-anchor="middle" font-size="9" fill="white" font-weight="bold">C</text>
<rect x="346" y="70" width="28" height="28" rx="4" fill="#2563EB" opacity="0.85"/><text x="360" y="85" text-anchor="middle" dominant-baseline="middle" font-size="14" fill="white">♿</text>
<rect x="380" y="70" width="28" height="28" rx="4" fill="#2563EB" opacity="0.85"/><text x="394" y="85" text-anchor="middle" dominant-baseline="middle" font-size="14" fill="white">♿</text>
<text x="64" y="125" text-anchor="middle" font-size="12" font-weight="bold" fill="#374151">B</text>
<rect x="84" y="106" width="28" height="28" rx="6" fill="#6B7280" opacity="0.7"/><text x="98" y="124" text-anchor="middle" font-size="9" fill="white" font-weight="bold">1</text>
<rect x="118" y="106" width="28" height="28" rx="6" fill="#6B7280" opacity="0.7"/><text x="132" y="124" text-anchor="middle" font-size="9" fill="white" font-weight="bold">2</text>
<rect x="152" y="106" width="28" height="28" rx="6" fill="#6B7280" opacity="0.7"/><text x="166" y="124" text-anchor="middle" font-size="9" fill="white" font-weight="bold">3</text>
<rect x="186" y="106" width="28" height="28" rx="6" fill="#6B7280" opacity="0.7"/><text x="200" y="124" text-anchor="middle" font-size="9" fill="white" font-weight="bold">4</text>
<rect x="220" y="106" width="28" height="28" rx="6" fill="#6B7280" opacity="0.7"/><text x="234" y="124" text-anchor="middle" font-size="9" fill="white" font-weight="bold">5</text>
<rect x="278" y="106" width="28" height="28" rx="6" fill="#6B7280" opacity="0.7"/><text x="292" y="124" text-anchor="middle" font-size="9" fill="white" font-weight="bold">6</text>
<rect x="312" y="106" width="28" height="28" rx="6" fill="#6B7280" opacity="0.7"/><text x="326" y="124" text-anchor="middle" font-size="9" fill="white" font-weight="bold">7</text>
<rect x="346" y="106" width="28" height="28" rx="6" fill="#6B7280" opacity="0.7"/><text x="360" y="124" text-anchor="middle" font-size="9" fill="white" font-weight="bold">8</text>
<rect x="380" y="106" width="28" height="28" rx="6" fill="#6B7280" opacity="0.7"/><text x="394" y="124" text-anchor="middle" font-size="9" fill="white" font-weight="bold">9</text>
<rect x="414" y="106" width="28" height="28" rx="6" fill="#6B7280" opacity="0.7"/><text x="428" y="124" text-anchor="middle" font-size="9" fill="white" font-weight="bold">10</text>
<text x="64" y="161" text-anchor="middle" font-size="12" font-weight="bold" fill="#374151">C</text>
<rect x="84" y="142" width="28" height="28" rx="6" fill="#6B7280" opacity="0.7"/><text x="98" y="160" text-anchor="middle" font-size="9" fill="white" font-weight="bold">1</text>
<rect x="118" y="142" width="28" height="28" rx="6" fill="#6B7280" opacity="0.7"/><text x="132" y="160" text-anchor="middle" font-size="9" fill="white" font-weight="bold">2</text>
<rect x="152" y="142" width="28" height="28" rx="6" fill="#6B7280" opacity="0.7"/><text x="166" y="160" text-anchor="middle" font-size="9" fill="white" font-weight="bold">3</text>
<rect x="186" y="142" width="28" height="28" rx="6" fill="#6B7280" opacity="0.7"/><text x="200" y="160" text-anchor="middle" font-size="9" fill="white" font-weight="bold">4</text>
<rect x="220" y="142" width="28" height="28" rx="6" fill="#6B7280" opacity="0.7"/><text x="234" y="160" text-anchor="middle" font-size="9" fill="white" font-weight="bold">5</text>
<rect x="278" y="142" width="28" height="28" rx="6" fill="#6B7280" opacity="0.7"/><text x="292" y="160" text-anchor="middle" font-size="9" fill="white" font-weight="bold">6</text>
<rect x="312" y="142" width="28" height="28" rx="6" fill="#6B7280" opacity="0.7"/><text x="326" y="160" text-anchor="middle" font-size="9" fill="white" font-weight="bold">7</text>
<rect x="346" y="142" width="28" height="28" rx="6" fill="#6B7280" opacity="0.7"/><text x="360" y="160" text-anchor="middle" font-size="9" fill="white" font-weight="bold">8</text>
<rect x="380" y="142" width="28" height="28" rx="6" fill="#6B7280" opacity="0.7"/><text x="394" y="160" text-anchor="middle" font-size="9" fill="white" font-weight="bold">9</text>
<rect x="414" y="142" width="28" height="28" rx="6" fill="#6B7280" opacity="0.7"/><text x="428" y="160" text-anchor="middle" font-size="9" fill="white" font-weight="bold">10</text>
<text x="64" y="197" text-anchor="middle" font-size="12" font-weight="bold" fill="#374151">D</text>
<rect x="84" y="178" width="28" height="28" rx="6" fill="#6B7280" opacity="0.7"/><text x="98" y="196" text-anchor="middle" font-size="9" fill="white" font-weight="bold">1</text>
<rect x="118" y="178" width="28" height="28" rx="6" fill="#6B7280" opacity="0.7"/><text x="132" y="196" text-anchor="middle" font-size="9" fill="white" font-weight="bold">2</text>
<rect x="152" y="178" width="28" height="28" rx="6" fill="#6B7280" opacity="0.7"/><text x="166" y="196" text-anchor="middle" font-size="9" fill="white" font-weight="bold">3</text>
<rect x="186" y="178" width="28" height="28" rx="6" fill="#6B7280" opacity="0.7"/><text x="200" y="196" text-anchor="middle" font-size="9" fill="white" font-weight="bold">4</text>
<rect x="220" y="178" width="28" height="28" rx="6" fill="#6B7280" opacity="0.7"/><text x="234" y="196" text-anchor="middle" font-size="9" fill="white" font-weight="bold">5</text>
<rect x="278" y="178" width="28" height="28" rx="6" fill="#6B7280" opacity="0.7"/><text x="292" y="196" text-anchor="middle" font-size="9" fill="white" font-weight="bold">6</text>
<rect x="312" y="178" width="28" height="28" rx="6" fill="#6B7280" opacity="0.7"/><text x="326" y="196" text-anchor="middle" font-size="9" fill="white" font-weight="bold">7</text>
<rect x="346" y="178" width="28" height="28" rx="6" fill="#6B7280" opacity="0.7"/><text x="360" y="196" text-anchor="middle" font-size="9" fill="white" font-weight="bold">8</text>
<rect x="380" y="178" width="28" height="28" rx="6" fill="#6B7280" opacity="0.7"/><text x="394" y="196" text-anchor="middle" font-size="9" fill="white" font-weight="bold">9</text>
<rect x="414" y="178" width="28" height="28" rx="6" fill="#6B7280" opacity="0.7"/><text x="428" y="196" text-anchor="middle" font-size="9" fill="white" font-weight="bold">10</text>
<text x="64" y="233" text-anchor="middle" font-size="12" font-weight="bold" fill="#374151">E</text>
<rect x="84" y="214" width="28" height="28" rx="6" fill="#6B7280" opacity="0.7"/><text x="98" y="232" text-anchor="middle" font-size="9" fill="white" font-weight="bold">1</text>
<rect x="118" y="214" width="28" height="28" rx="6" fill="#6B7280" opacity="0.7"/><text x="132" y="232" text-anchor="middle" font-size="9" fill="white" font-weight="bold">2</text>
<rect x="152" y="214" width="28" height="28" rx="6" fill="#6B7280" opacity="0.7"/><text x="166" y="232" text-anchor="middle" font-size="9" fill="white" font-weight="bold">3</text>
<rect x="186" y="214" width="28" height="28" rx="6" fill="#6B7280" opacity="0.7"/><text x="200" y="232" text-anchor="middle" font-size="9" fill="white" font-weight="bold">4</text>
<rect x="220" y="214" width="28" height="28" rx="6" fill="#6B7280" opacity="0.7"/><text x="234" y="232" text-anchor="middle" font-size="9" fill="white" font-weight="bold">5</text>
<rect x="278" y="214" width="28" height="28" rx="6" fill="#6B7280" opacity="0.7"/><text x="292" y="232" text-anchor="middle" font-size="9" fill="white" font-weight="bold">6</text>
<rect x="312" y="214" width="28" height="28" rx="6" fill="#6B7280" opacity="0.7"/><text x="326" y="232" text-anchor="middle" font-size="9" fill="white" font-weight="bold">7</text>
<rect x="346" y="214" width="28" height="28" rx="6" fill="#6B7280" opacity="0.7"/><text x="360" y="232" text-anchor="middle" font-size="9" fill="white" font-weight="bold">8</text>
<rect x="380" y="214" width="28" height="28" rx="6" fill="#6B7280" opacity="0.7"/><text x="394" y="232" text-anchor="middle" font-size="9" fill="white" font-weight="bold">9</text>
<rect x="414" y="214" width="28" height="28" rx="6" fill="#6B7280" opacity="0.7"/><text x="428" y="232" text-anchor="middle" font-size="9" fill="white" font-weight="bold">10</text>
<text x="64" y="269" text-anchor="middle" font-size="12" font-weight="bold" fill="#374151">F</text>
<rect x="84" y="250" width="28" height="28" rx="6" fill="#6B7280" opacity="0.7"/><text x="98" y="268" text-anchor="middle" font-size="9" fill="white" font-weight="bold">1</text>
<rect x="118" y="250" width="28" height="28" rx="6" fill="#6B7280" opacity="0.7"/><text x="132" y="268" text-anchor="middle" font-size="9" fill="white" font-weight="bold">2</text>
<rect x="152" y="250" width="28" height="28" rx="6" fill="#6B7280" opacity="0.7"/><text x="166" y="268" text-anchor="middle" font-size="9" fill="white" font-weight="bold">3</text>
<rect x="186" y="250" width="28" height="28" rx="6" fill="#D97706" opacity="0.85"/><text x="200" y="268" text-anchor="middle" font-size="9" fill="white" font-weight="bold">4</text>
<rect x="220" y="250" width="28" height="28" rx="6" fill="#D97706" opacity="0.85"/><text x="234" y="268" text-anchor="middle" font-size="9" fill="white" font-weight="bold">5</text>
<rect x="278" y="250" width="28" height="28" rx="6" fill="#D97706" opacity="0.85"/><text x="292" y="268" text-anchor="middle" font-size="9" fill="white" font-weight="bold">6</text>
<rect x="312" y="250" width="28" height="28" rx="6" fill="#D97706" opacity="0.85"/><text x="326" y="268" text-anchor="middle" font-size="9" fill="white" font-weight="bold">7</text>
<rect x="346" y="250" width="28" height="28" rx="6" fill="#6B7280" opacity="0.7"/><text x="360" y="268" text-anchor="middle" font-size="9" fill="white" font-weight="bold">8</text>
<rect x="380" y="250" width="28" height="28" rx="6" fill="#6B7280" opacity="0.7"/><text x="394" y="268" text-anchor="middle" font-size="9" fill="white" font-weight="bold">9</text>
<rect x="414" y="250" width="28" height="28" rx="6" fill="#6B7280" opacity="0.7"/><text x="428" y="268" text-anchor="middle" font-size="9" fill="white" font-weight="bold">10</text>
<text x="30" y="305" text-anchor="middle" font-size="12" font-weight="bold" fill="#374151">G</text>
<rect x="50" y="286" width="28" height="28" rx="6" fill="#6B7280" opacity="0.7"/><text x="64" y="304" text-anchor="middle" font-size="9" fill="white" font-weight="bold">1</text>
<rect x="84" y="286" width="28" height="28" rx="6" fill="#6B7280" opacity="0.7"/><text x="98" y="304" text-anchor="middle" font-size="9" fill="white" font-weight="bold">2</text>
<rect x="118" y="286" width="28" height="28" rx="6" fill="#6B7280" opacity="0.7"/><text x="132" y="304" text-anchor="middle" font-size="9" fill="white" font-weight="bold">3</text>
<rect x="152" y="286" width="28" height="28" rx="6" fill="#D97706" opacity="0.85"/><text x="166" y="304" text-anchor="middle" font-size="9" fill="white" font-weight="bold">4</text>
<rect x="186" y="286" width="28" height="28" rx="6" fill="#D97706" opacity="0.85"/><text x="200" y="304" text-anchor="middle" font-size="9" fill="white" font-weight="bold">5</text>
<rect x="220" y="286" width="28" height="28" rx="6" fill="#D97706" opacity="0.85"/><text x="234" y="304" text-anchor="middle" font-size="9" fill="white" font-weight="bold">6</text>
<rect x="278" y="286" width="28" height="28" rx="6" fill="#D97706" opacity="0.85"/><text x="292" y="304" text-anchor="middle" font-size="9" fill="white" font-weight="bold">7</text>
<rect x="312" y="286" width="28" height="28" rx="6" fill="#D97706" opacity="0.85"/><text x="326" y="304" text-anchor="middle" font-size="9" fill="white" font-weight="bold">8</text>
<rect x="346" y="286" width="28" height="28" rx="6" fill="#D97706" opacity="0.85"/><text x="360" y="304" text-anchor="middle" font-size="9" fill="white" font-weight="bold">9</text>
<rect x="380" y="286" width="28" height="28" rx="6" fill="#6B7280" opacity="0.7"/><text x="394" y="304" text-anchor="middle" font-size="9" fill="white" font-weight="bold">10</text>
<rect x="414" y="286" width="28" height="28" rx="6" fill="#6B7280" opacity="0.7"/><text x="428" y="304" text-anchor="middle" font-size="9" fill="white" font-weight="bold">11</text>
<rect x="448" y="286" width="28" height="28" rx="6" fill="#6B7280" opacity="0.7"/><text x="462" y="304" text-anchor="middle" font-size="9" fill="white" font-weight="bold">12</text>
<text x="30" y="341" text-anchor="middle" font-size="12" font-weight="bold" fill="#374151">H</text>
<rect x="50" y="322" width="28" height="28" rx="6" fill="#6B7280" opacity="0.7"/><text x="64" y="340" text-anchor="middle" font-size="9" fill="white" font-weight="bold">1</text>
<rect x="84" y="322" width="28" height="28" rx="6" fill="#6B7280" opacity="0.7"/><text x="98" y="340" text-anchor="middle" font-size="9" fill="white" font-weight="bold">2</text>
<rect x="118" y="322" width="28" height="28" rx="6" fill="#6B7280" opacity="0.7"/><text x="132" y="340" text-anchor="middle" font-size="9" fill="white" font-weight="bold">3</text>
<rect x="152" y="322" width="28" height="28" rx="6" fill="#6B7280" opacity="0.7"/><text x="166" y="340" text-anchor="middle" font-size="9" fill="white" font-weight="bold">4</text>
<rect x="186" y="322" width="28" height="28" rx="6" fill="#6B7280" opacity="0.7"/><text x="200" y="340" text-anchor="middle" font-size="9" fill="white" font-weight="bold">5</text>
<rect x="220" y="322" width="28" height="28" rx="6" fill="#6B7280" opacity="0.7"/><text x="234" y="340" text-anchor="middle" font-size="9" fill="white" font-weight="bold">6</text>
<rect x="278" y="322" width="28" height="28" rx="6" fill="#6B7280" opacity="0.7"/><text x="292" y="340" text-anchor="middle" font-size="9" fill="white" font-weight="bold">7</text>
<rect x="312" y="322" width="28" height="28" rx="6" fill="#6B7280" opacity="0.7"/><text x="326" y="340" text-anchor="middle" font-size="9" fill="white" font-weight="bold">8</text>
<rect x="346" y="322" width="28" height="28" rx="6" fill="#6B7280" opacity="0.7"/><text x="360" y="340" text-anchor="middle" font-size="9" fill="white" font-weight="bold">9</text>
<rect x="380" y="322" width="28" height="28" rx="6" fill="#6B7280" opacity="0.7"/><text x="394" y="340" text-anchor="middle" font-size="9" fill="white" font-weight="bold">10</text>
<rect x="414" y="322" width="28" height="28" rx="6" fill="#6B7280" opacity="0.7"/><text x="428" y="340" text-anchor="middle" font-size="9" fill="white" font-weight="bold">11</text>
<rect x="448" y="322" width="28" height="28" rx="6" fill="#6B7280" opacity="0.7"/><text x="462" y="340" text-anchor="middle" font-size="9" fill="white" font-weight="bold">12</text>
<rect x="50" y="374" width="14" height="14" rx="3" fill="#6B7280" opacity="0.7"/><text x="70" y="385" font-size="11" fill="#374151">Standard</text><rect x="142" y="374" width="14" height="14" rx="3" fill="#D97706" opacity="0.85"/><text x="162" y="385" font-size="11" fill="#374151">Premium</text><rect x="227" y="374" width="14" height="14" rx="3" fill="#2563EB" opacity="0.85"/><text x="247" y="385" font-size="11" fill="#374151">Wheelchair</text><rect x="333" y="374" width="14" height="14" rx="3" fill="#60A5FA" opacity="0.85"/><text x="353" y="385" font-size="11" fill="#374151">Companion</text>
</svg>