<svg xmlns="http://www.w3.org/2000/svg" width="644" height="556" viewBox="0 0 644 556">
<rect width="100%" height="100%" fill="white"/>
<text x="322" y="30" text-anchor="middle" font-family="Arial, sans-serif" font-size="18" font-weight="bold" fill="#222">Kino Stella</text>
<path d="M 90 80 Q 337 65 584 80" stroke="#555" stroke-width="3" fill="none"/><text x="337" y="96" text-anchor="middle" font-family="Arial, sans-serif" font-size="11" fill="#666">SCREEN</text>
<text x="62" y="145" text-anchor="end" dominant-baseline="central" font-family="Arial, sans-serif" font-size="13" font-weight="bold" fill="#444">A</text>
<rect x="70" y="130" width="28" height="28" rx="4" ry="4" fill="#e0e0e0" stroke="#888" stroke-width="1.5"/><text x="84" y="145" text-anchor="middle" dominant-baseline="central" font-family="Arial, sans-serif" font-size="10" fill="#333">A1</text><rect x="104" y="130" width="28" height="28" rx="4" ry="4" fill="#e0e0e0" stroke="#888" stroke-width="1.5"/><text x="118" y="145" text-anchor="middle" dominant-baseline="central" font-family="Arial, sans-serif" font-size="10" fill="#333">A2</text><rect x="138" y="130" width="28" height="28" rx="4" ry="4" fill="#e0e0e0" stroke="#888" stroke-width="1.5"/><text x="152" y="145" text-anchor="middle" dominant-baseline="central" font-family="Arial, sans-serif" font-size="10" fill="#333">A3</text><rect x="204" y="130" width="28" height="28" rx="4" ry="4" fill="#e0e0e0" stroke="#888" stroke-width="1.5"/><text x="218" y="145" text-anchor="middle" dominant-baseline="central" font-family="Arial, sans-serif" font-size="10" fill="#333">A4</text><rect x="238" y="130" width="28" height="28" rx="4" ry="4" fill="#e0e0e0" stroke="#888" stroke-width="1.5"/><text x="252" y="145" text-anchor="middle" dominant-baseline="central" font-family="Arial, sans-serif" font-size="10" fill="#333">A5</text><rect x="272" y="130" width="28" height="28" rx="4" ry="4" fill="#e0e0e0" stroke="#888" stroke-width="1.5"/><text x="286" y="145" text-anchor="middle" dominant-baseline="central" font-family="Arial, sans-serif" font-size="10" fill="#333">A6</text><rect x="306" y="130" width="28" height="28" rx="4" ry="4" fill="#e0e0e0" stroke="#888" stroke-width="1.5"/><text x="320" y="145" text-anchor="middle" dominant-baseline="central" font-family="Arial, sans-serif" font-size="10" fill="#333">A7</text><rect x="340" y="130" width="28" height="28" rx="4" ry="4" fill="#e0e0e0" stroke="#888" stroke-width="1.5"/><text x="354" y="145" text-anchor="middle" dominant-baseline="central" font-family="Arial, sans-serif" font-size="10" fill="#333">A8</text><rect x="374" y="130" width="28" height="28" rx="4" ry="4" fill="#e0e0e0" stroke="#888" stroke-width="1.5"/><text x="388" y="145" text-anchor="middle" dominant-baseline="central" font-family="Arial, sans-serif" font-size="10" fill="#333">A9</text><rect x="408" y="130" width="28" height="28" rx="4" ry="4" fill="#e0e0e0" stroke="#888" stroke-width="1.5"/><text x="422" y="145" text-anchor="middle" dominant-baseline="central" font-family="Arial, sans-serif" font-size="10" fill="#333">A10</text><rect x="442" y="130" width="28" height="28" rx="4" ry="4" fill="#e0e0e0" stroke="#888" stroke-width="1.5"/><text x="456" y="145" text-anchor="middle" dominant-baseline="central" font-family="Arial, sans-serif" font-size="10" fill="#333">A11</text><rect x="508" y="130" width="28" height="28" rx="4" ry="4" fill="#e0e0e0" stroke="#888" stroke-width="1.5"/><text x="522" y="145" text-anchor="middle" dominant-baseline="central" font-family="Arial, sans-serif" font-size="10" fill="#333">A12</text><rect x="542" y="130" width="28" height="28" rx="4" ry="4" fill="#e0e0e0" stroke="#888" stroke-width="1.5"/><text x="556" y="145" text-anchor="middle" dominant-baseline="central" font-family="Arial, sans-serif" font-size="10" fill="#333">A13</text><rect x="576" y="130" width="28" height="28" rx="4" ry="4" fill="#e0e0e0" stroke="#888" stroke-width="1.5"/><text x="590" y="145" text-anchor="middle" dominant-baseline="central" font-family="Arial, sans-serif" font-size="10" fill="#333">A14</text><text x="62" y="179" text-anchor="end" dominant-baseline="central" font-family="Arial, sans-serif" font-size="13" font-weight="bold" fill="#444">B</text>
<rect x="70" y="164" width="28" height="28" rx="4" ry="4" fill="#e0e0e0" stroke="#888" stroke-width="1.5"/><text x="84" y="179" text-anchor="middle" dominant-baseline="central" font-family="Arial, sans-serif" font-size="10" fill="#333">B1</text><rect x="104" y="164" width="28" height="28" rx="4" ry="4" fill="#e0e0e0" stroke="#888" stroke-width="1.5"/><text x="118" y="179" text-anchor="middle" dominant-baseline="central" font-family="Arial, sans-serif" font-size="10" fill="#333">B2</text><rect x="138" y="164" width="28" height="28" rx="4" ry="4" fill="#e0e0e0" stroke="#888" stroke-width="1.5"/><text x="152" y="179" text-anchor="middle" dominant-baseline="central" font-family="Arial, sans-serif" font-size="10" fill="#333">B3</text><rect x="204" y="164" width="28" height="28" rx="4" ry="4" fill="#e0e0e0" stroke="#888" stroke-width="1.5"/><text x="218" y="179" text-anchor="middle" dominant-baseline="central" font-family="Arial, sans-serif" font-size="10" fill="#333">B4</text><rect x="238" y="164" width="28" height="28" rx="4" ry="4" fill="#e0e0e0" stroke="#888" stroke-width="1.5"/><text x="252" y="179" text-anchor="middle" dominant-baseline="central" font-family="Arial, sans-serif" font-size="10" fill="#333">B5</text><rect x="272" y="164" width="28" height="28" rx="4" ry="4" fill="#e0e0e0" stroke="#888" stroke-width="1.5"/><text x="286" y="179" text-anchor="middle" dominant-baseline="central" font-family="Arial, sans-serif" font-size="10" fill="#333">B6</text><rect x="306" y="164" width="28" height="28" rx="4" ry="4" fill="#e0e0e0" stroke="#888" stroke-width="1.5"/><text x="320" y="179" text-anchor="middle" dominant-baseline="central" font-family="Arial, sans-serif" font-size="10" fill="#333">B7</text><rect x="340" y="164" width="28" height="28" rx="4" ry="4" fill="#e0e0e0" stroke="#888" stroke-width="1.5"/><text x="354" y="179" text-anchor="middle" dominant-baseline="central" font-family="Arial, sans-serif" font-size="10" fill="#333">B8</text><rect x="374" y="164" width="28" height="28" rx="4" ry="4" fill="#e0e0e0" stroke="#888" stroke-width="1.5"/><text x="388" y="179" text-anchor="middle" dominant-baseline="central" font-family="Arial, sans-serif" font-size="10" fill="#333">B9</text><rect x="408" y="164" width="28" height="28" rx="4" ry="4" fill="#e0e0e0" stroke="#888" stroke-width="1.5"/><text x="422" y="179" text-anchor="middle" dominant-baseline="central" font-family="Arial, sans-serif" font-size="10" fill="#333">B10</text><rect x="442" y="164" width="28" height="28" rx="4" ry="4" fill="#e0e0e0" stroke="#888" stroke-width="1.5"/><text x="456" y="179" text-anchor="middle" dominant-baseline="central" font-family="Arial, sans-serif" font-size="10" fill="#333">B11</text><rect x="508" y="164" width="28" height="28" rx="4" ry="4" fill="#e0e0e0" stroke="#888" stroke-width="1.5"/><text x="522" y="179" text-anchor="middle" dominant-baseline="central" font-family="Arial, sans-serif" font-size="10" fill="#333">B12</text><rect x="542" y="164" width="28" height="28" rx="4" ry="4" fill="#e0e0e0" stroke="#888" stroke-width="1.5"/><text x="556" y="179" text-anchor="middle" dominant-baseline="central" font-family="Arial, sans-serif" font-size="10" fill="#333">B13</text><rect x="576" y="164" width="28" height="28" rx="4" ry="4" fill="#e0e0e0" stroke="#888" stroke-width="1.5"/><text x="590" y="179" text-anchor="middle" dominant-baseline="central" font-family="Arial, sans-serif" font-size="10" fill="#333">B14</text><text x="62" y="213" text-anchor="end" dominant-baseline="central" font-family="Arial, sans-serif" font-size="13" font-weight="bold" fill="#444">C</text>
<rect x="70" y="198" width="28" height="28" rx="4" ry="4" fill="#e0e0e0" stroke="#888" stroke-width="1.5"/><text x="84" y="213" text-anchor="middle" dominant-baseline="central" font-family="Arial, sans-serif" font-size="10" fill="#333">C1</text><rect x="104" y="198" width="28" height="28" rx="4" ry="4" fill="#e0e0e0" stroke="#888" stroke-width="1.5"/><text x="118" y="213" text-anchor="middle" dominant-baseline="central" font-family="Arial, sans-serif" font-size="10" fill="#333">C2</text><rect x="138" y="198" width="28" height="28" rx="4" ry="4" fill="#e0e0e0" stroke="#888" stroke-width="1.5"/><text x="152" y="213" text-anchor="middle" dominant-baseline="central" font-family="Arial, sans-serif" font-size="10" fill="#333">C3</text><rect x="204" y="198" width="28" height="28" rx="4" ry="4" fill="#e0e0e0" stroke="#888" stroke-width="1.5"/><text x="218" y="213" text-anchor="middle" dominant-baseline="central" font-family="Arial, sans-serif" font-size="10" fill="#333">C4</text><rect x="238" y="198" width="28" height="28" rx="4" ry="4" fill="#e0e0e0" stroke="#888" stroke-width="1.5"/><text x="252" y="213" text-anchor="middle" dominant-baseline="central" font-family="Arial, sans-serif" font-size="10" fill="#333">C5</text><rect x="272" y="198" width="28" height="28" rx="4" ry="4" fill="#e0e0e0" stroke="#888" stroke-width="1.5"/><text x="286" y="213" text-anchor="middle" dominant-baseline="central" font-family="Arial, sans-serif" font-size="10" fill="#333">C6</text><rect x="306" y="198" width="28" height="28" rx="4" ry="4" fill="#e0e0e0" stroke="#888" stroke-width="1.5"/><text x="320" y="213" text-anchor="middle" dominant-baseline="central" font-family="Arial, sans-serif" font-size="10" fill="#333">C7</text><rect x="340" y="198" width="28" height="28" rx="4" ry="4" fill="#e0e0e0" stroke="#888" stroke-width="1.5"/><text x="354" y="213" text-anchor="middle" dominant-baseline="central" font-family="Arial, sans-serif" font-size="10" fill="#333">C8</text><rect x="374" y="198" width="28" height="28" rx="4" ry="4" fill="#e0e0e0" stroke="#888" stroke-width="1.5"/><text x="388" y="213" text-anchor="middle" dominant-baseline="central" font-family="Arial, sans-serif" font-size="10" fill="#333">C9</text><rect x="408" y="198" width="28" height="28" rx="4" ry="4" fill="#e0e0e0" stroke="#888" stroke-width="1.5"/><text x="422" y="213" text-anchor="middle" dominant-baseline="central" font-family="Arial, sans-serif" font-size="10" fill="#333">C10</text><rect x="442" y="198" width="28" height="28" rx="4" ry="4" fill="#e0e0e0" stroke="#888" stroke-width="1.5"/><text x="456" y="213" text-anchor="middle" dominant-baseline="central" font-family="Arial, sans-serif" font-size="10" fill="#333">C11</text><rect x="508" y="198" width="28" height="28" rx="4" ry="4" fill="#e0e0e0" stroke="#888" stroke-width="1.5"/><text x="522" y="213" text-anchor="middle" dominant-baseline="central" font-family="Arial, sans-serif" font-size="10" fill="#333">C12</text><rect x="542" y="198" width="28" height="28" rx="4" ry="4" fill="#e0e0e0" stroke="#888" stroke-width="1.5"/><text x="556" y="213" text-anchor="middle" dominant-baseline="central" font-family="Arial, sans-serif" font-size="10" fill="#333">C13</text><rect x="576" y="198" width="28" height="28" rx="4" ry="4" fill="#e0e0e0" stroke="#888" stroke-width="1.5"/><text x="590" y="213" text-anchor="middle" dominant-baseline="central" font-family="Arial, sans-serif" font-size="10" fill="#333">C14</text><text x="62" y="247" text-anchor="end" dominant-baseline="central" font-family="Arial, sans-serif" font-size="13" font-weight="bold" fill="#444">D</text>
<rect x="70" y="232" width="28" height="28" rx="4" ry="4" fill="#ffd966" stroke="#b8860b" stroke-width="1.5"/><text x="84" y="247" text-anchor="middle" dominant-baseline="central" font-family="Arial, sans-serif" font-size="10" fill="#333">D1</text><rect x="104" y="232" width="28" height="28" rx="4" ry="4" fill="#ffd966" stroke="#b8860b" stroke-width="1.5"/><text x="118" y="247" text-anchor="middle" dominant-baseline="central" font-family="Arial, sans-serif" font-size="10" fill="#333">D2</text><rect x="138" y="232" width="28" height="28" rx="4" ry="4" fill="#ffd966" stroke="#b8860b" stroke-width="1.5"/><text x="152" y="247" text-anchor="middle" dominant-baseline="central" font-family="Arial, sans-serif" font-size="10" fill="#333">D3</text><rect x="204" y="232" width="28" height="28" rx="4" ry="4" fill="#ffd966" stroke="#b8860b" stroke-width="1.5"/><text x="218" y="247" text-anchor="middle" dominant-baseline="central" font-family="Arial, sans-serif" font-size="10" fill="#333">D4</text><rect x="238" y="232" width="28" height="28" rx="4" ry="4" fill="#ffd966" stroke="#b8860b" stroke-width="1.5"/><text x="252" y="247" text-anchor="middle" dominant-baseline="central" font-family="Arial, sans-serif" font-size="10" fill="#333">D5</text><rect x="272" y="232" width="28" height="28" rx="4" ry="4" fill="#ffd966" stroke="#b8860b" stroke-width="1.5"/><text x="286" y="247" text-anchor="middle" dominant-baseline="central" font-family="Arial, sans-serif" font-size="10" fill="#333">D6</text><rect x="306" y="232" width="28" height="28" rx="4" ry="4" fill="#ffd966" stroke="#b8860b" stroke-width="1.5"/><text x="320" y="247" text-anchor="middle" dominant-baseline="central" font-family="Arial, sans-serif" font-size="10" fill="#333">D7</text><rect x="340" y="232" width="28" height="28" rx="4" ry="4" fill="#ffd966" stroke="#b8860b" stroke-width="1.5"/><text x="354" y="247" text-anchor="middle" dominant-baseline="central" font-family="Arial, sans-serif" font-size="10" fill="#333">D8</text><rect x="374" y="232" width="28" height="28" rx="4" ry="4" fill="#ffd966" stroke="#b8860b" stroke-width="1.5"/><text x="388" y="247" text-anchor="middle" dominant-baseline="central" font-family="Arial, sans-serif" font-size="10" fill="#333">D9</text><rect x="408" y="232" width="28" height="28" rx="4" ry="4" fill="#ffd966" stroke="#b8860b" stroke-width="1.5"/><text x="422" y="247" text-anchor="middle" dominant-baseline="central" font-family="Arial, sans-serif" font-size="10" fill="#333">D10</text><rect x="442" y="232" width="28" height="28" rx="4" ry="4" fill="#ffd966" stroke="#b8860b" stroke-width="1.5"/><text x="456" y="247" text-anchor="middle" dominant-baseline="central" font-family="Arial, sans-serif" font-size="10" fill="#333">D11</text><rect x="508" y="232" width="28" height="28" rx="4" ry="4" fill="#ffd966" stroke="#b8860b" stroke-width="1.5"/><text x="522" y="247" text-anchor="middle" dominant-baseline="central" font-family="Arial, sans-serif" font-size="10" fill="#333">D12</text><rect x="542" y="232" width="28" height="28" rx="4" ry="4" fill="#ffd966" stroke="#b8860b" stroke-width="1.5"/><text x="556" y="247" text-anchor="middle" dominant-baseline="central" font-family="Arial, sans-serif" font-size="10" fill="#333">D13</text><rect x="576" y="232" width="28" height="28" rx="4" ry="4" fill="#ffd966" stroke="#b8860b" stroke-width="1.5"/><text x="590" y="247" text-anchor="middle" dominant-baseline="central" font-family="Arial, sans-serif" font-size="10" fill="#333">D14</text><text x="62" y="281" text-anchor="end" dominant-baseline="central" font-family="Arial, sans-serif" font-size="13" font-weight="bold" fill="#444">E</text>
<rect x="70" y="266" width="28" height="28" rx="4" ry="4" fill="#ffd966" stroke="#b8860b" stroke-width="1.5"/><text x="84" y="281" text-anchor="middle" dominant-baseline="central" font-family="Arial, sans-serif" font-size="10" fill="#333">E1</text><rect x="104" y="266" width="28" height="28" rx="4" ry="4" fill="#ffd966" stroke="#b8860b" stroke-width="1.5"/><text x="118" y="281" text-anchor="middle" dominant-baseline="central" font-family="Arial, sans-serif" font-size="10" fill="#333">E2</text><rect x="138" y="266" width="28" height="28" rx="4" ry="4" fill="#ffd966" stroke="#b8860b" stroke-width="1.5"/><text x="152" y="281" text-anchor="middle" dominant-baseline="central" font-family="Arial, sans-serif" font-size="10" fill="#333">E3</text><rect x="204" y="266" width="28" height="28" rx="4" ry="4" fill="#ffd966" stroke="#b8860b" stroke-width="1.5"/><text x="218" y="281" text-anchor="middle" dominant-baseline="central" font-family="Arial, sans-serif" font-size="10" fill="#333">E4</text><rect x="238" y="266" width="28" height="28" rx="4" ry="4" fill="#ffd966" stroke="#b8860b" stroke-width="1.5"/><text x="252" y="281" text-anchor="middle" dominant-baseline="central" font-family="Arial, sans-serif" font-size="10" fill="#333">E5</text><rect x="272" y="266" width="28" height="28" rx="4" ry="4" fill="#ffd966" stroke="#b8860b" stroke-width="1.5"/><text x="286" y="281" text-anchor="middle" dominant-baseline="central" font-family="Arial, sans-serif" font-size="10" fill="#333">E6</text><rect x="306" y="266" width="28" height="28" rx="4" ry="4" fill="#ffd966" stroke="#b8860b" stroke-width="1.5"/><text x="320" y="281" text-anchor="middle" dominant-baseline="central" font-family="Arial, sans-serif" font-size="10" fill="#333">E7</text><rect x="340" y="266" width="28" height="28" rx="4" ry="4" fill="#ffd966" stroke="#b8860b" stroke-width="1.5"/><text x="354" y="281" text-anchor="middle" dominant-baseline="central" font-family="Arial, sans-serif" font-size="10" fill="#333">E8</text><rect x="374" y="266" width="28" height="28" rx="4" ry="4" fill="#ffd966" stroke="#b8860b" stroke-width="1.5"/><text x="388" y="281" text-anchor="middle" dominant-baseline="central" font-family="Arial, sans-serif" font-size="10" fill="#333">E9</text><rect x="408" y="266" width="28" height="28" rx="4" ry="4" fill="#ffd966" stroke="#b8860b" stroke-width="1.5"/><text x="422" y="281" text-anchor="middle" dominant-baseline="central" font-family="Arial, sans-serif" font-size="10" fill="#333">E10</text><rect x="442" y="266" width="28" height="28" rx="4" ry="4" fill="#ffd966" stroke="#b8860b" stroke-width="1.5"/><text x="456" y="281" text-anchor="middle" dominant-baseline="central" font-family="Arial, sans-serif" font-size="10" fill="#333">E11</text><rect x="508" y="266" width="28" height="28" rx="4" ry="4" fill="#ffd966" stroke="#b8860b" stroke-width="1.5"/><text x="522" y="281" text-anchor="middle" dominant-baseline="central" font-family="Arial, sans-serif" font-size="10" fill="#333">E12</text><rect x="542" y="266" width="28" height="28" rx="4" ry="4" fill="#ffd966" stroke="#b8860b" stroke-width="1.5"/><text x="556" y="281" text-anchor="middle" dominant-baseline="central" font-family="Arial, sans-serif" font-size="10" fill="#333">E13</text><rect x="576" y="266" width="28" height="28" rx="4" ry="4" fill="#ffd966" stroke="#b8860b" stroke-width="1.5"/><text x="590" y="281" text-anchor="middle" dominant-baseline="central" font-family="Arial, sans-serif" font-size="10" fill="#333">E14</text><text x="62" y="315" text-anchor="end" dominant-baseline="central" font-family="Arial, sans-serif" font-size="13" font-weight="bold" fill="#444">F</text>
<rect x="70" y="300" width="28" height="28" rx="4" ry="4" fill="#e0e0e0" stroke="#888" stroke-width="1.5"/><text x="84" y="315" text-anchor="middle" dominant-baseline="central" font-family="Arial, sans-serif" font-size="10" fill="#333">F1</text><rect x="104" y="300" width="28" height="28" rx="4" ry="4" fill="#e0e0e0" stroke="#888" stroke-width="1.5"/><text x="118" y="315" text-anchor="middle" dominant-baseline="central" font-family="Arial, sans-serif" font-size="10" fill="#333">F2</text><rect x="138" y="300" width="28" height="28" rx="4" ry="4" fill="#e0e0e0" stroke="#888" stroke-width="1.5"/><text x="152" y="315" text-anchor="middle" dominant-baseline="central" font-family="Arial, sans-serif" font-size="10" fill="#333">F3</text><rect x="204" y="300" width="28" height="28" rx="4" ry="4" fill="#e0e0e0" stroke="#888" stroke-width="1.5"/><text x="218" y="315" text-anchor="middle" dominant-baseline="central" font-family="Arial, sans-serif" font-size="10" fill="#333">F4</text><rect x="238" y="300" width="28" height="28" rx="4" ry="4" fill="#e0e0e0" stroke="#888" stroke-width="1.5"/><text x="252" y="315" text-anchor="middle" dominant-baseline="central" font-family="Arial, sans-serif" font-size="10" fill="#333">F5</text><rect x="272" y="300" width="28" height="28" rx="4" ry="4" fill="#e0e0e0" stroke="#888" stroke-width="1.5"/><text x="286" y="315" text-anchor="middle" dominant-baseline="central" font-family="Arial, sans-serif" font-size="10" fill="#333">F6</text><rect x="306" y="300" width="28" height="28" rx="4" ry="4" fill="#e0e0e0" stroke="#888" stroke-width="1.5"/><text x="320" y="315" text-anchor="middle" dominant-baseline="central" font-family="Arial, sans-serif" font-size="10" fill="#333">F7</text><rect x="340" y="300" width="28" height="28" rx="4" ry="4" fill="#e0e0e0" stroke="#888" stroke-width="1.5"/><text x="354" y="315" text-anchor="middle" dominant-baseline="central" font-family="Arial, sans-serif" font-size="10" fill="#333">F8</text><rect x="374" y="300" width="28" height="28" rx="4" ry="4" fill="#e0e0e0" stroke="#888" stroke-width="1.5"/><text x="388" y="315" text-anchor="middle" dominant-baseline="central" font-family="Arial, sans-serif" font-size="10" fill="#333">F9</text><rect x="408" y="300" width="28" height="28" rx="4" ry="4" fill="#e0e0e0" stroke="#888" stroke-width="1.5"/><text x="422" y="315" text-anchor="middle" dominant-baseline="central" font-family="Arial, sans-serif" font-size="10" fill="#333">F10</text><rect x="442" y="300" width="28" height="28" rx="4" ry="4" fill="#e0e0e0" stroke="#888" stroke-width="1.5"/><text x="456" y="315" text-anchor="middle" dominant-baseline="central" font-family="Arial, sans-serif" font-size="10" fill="#333">F11</text><rect x="508" y="300" width="28" height="28" rx="4" ry="4" fill="#e0e0e0" stroke="#888" stroke-width="1.5"/><text x="522" y="315" text-anchor="middle" dominant-baseline="central" font-family="Arial, sans-serif" font-size="10" fill="#333">F12</text><rect x="542" y="300" width="28" height="28" rx="4" ry="4" fill="#e0e0e0" stroke="#888" stroke-width="1.5"/><text x="556" y="315" text-anchor="middle" dominant-baseline="central" font-family="Arial, sans-serif" font-size="10" fill="#333">F13</text><rect x="576" y="300" width="28" height="28" rx="4" ry="4" fill="#e0e0e0" stroke="#888" stroke-width="1.5"/><text x="590" y="315" text-anchor="middle" dominant-baseline="central" font-family="Arial, sans-serif" font-size="10" fill="#333">F14</text><text x="62" y="349" text-anchor="end" dominant-baseline="central" font-family="Arial, sans-serif" font-size="13" font-weight="bold" fill="#444">G</text>
<rect x="70" y="334" width="28" height="28" rx="4" ry="4" fill="#e0e0e0" stroke="#888" stroke-width="1.5"/><text x="84" y="349" text-anchor="middle" dominant-baseline="central" font-family="Arial, sans-serif" font-size="10" fill="#333">G1</text><rect x="104" y="334" width="28" height="28" rx="4" ry="4" fill="#e0e0e0" stroke="#888" stroke-width="1.5"/><text x="118" y="349" text-anchor="middle" dominant-baseline="central" font-family="Arial, sans-serif" font-size="10" fill="#333">G2</text><rect x="138" y="334" width="28" height="28" rx="4" ry="4" fill="#e0e0e0" stroke="#888" stroke-width="1.5"/><text x="152" y="349" text-anchor="middle" dominant-baseline="central" font-family="Arial, sans-serif" font-size="10" fill="#333">G3</text><rect x="204" y="334" width="28" height="28" rx="4" ry="4" fill="#e0e0e0" stroke="#888" stroke-width="1.5"/><text x="218" y="349" text-anchor="middle" dominant-baseline="central" font-family="Arial, sans-serif" font-size="10" fill="#333">G4</text><rect x="238" y="334" width="28" height="28" rx="4" ry="4" fill="#e0e0e0" stroke="#888" stroke-width="1.5"/><text x="252" y="349" text-anchor="middle" dominant-baseline="central" font-family="Arial, sans-serif" font-size="10" fill="#333">G5</text><rect x="272" y="334" width="28" height="28" rx="4" ry="4" fill="#e0e0e0" stroke="#888" stroke-width="1.5"/><text x="286" y="349" text-anchor="middle" dominant-baseline="central" font-family="Arial, sans-serif" font-size="10" fill="#333">G6</text><rect x="306" y="334" width="28" height="28" rx="4" ry="4" fill="#e0e0e0" stroke="#888" stroke-width="1.5"/><text x="320" y="349" text-anchor="middle" dominant-baseline="central" font-family="Arial, sans-serif" font-size="10" fill="#333">G7</text><rect x="340" y="334" width="28" height="28" rx="4" ry="4" fill="#e0e0e0" stroke="#888" stroke-width="1.5"/><text x="354" y="349" text-anchor="middle" dominant-baseline="central" font-family="Arial, sans-serif" font-size="10" fill="#333">G8</text><rect x="374" y="334" width="28" height="28" rx="4" ry="4" fill="#e0e0e0" stroke="#888" stroke-width="1.5"/><text x="388" y="349" text-anchor="middle" dominant-baseline="central" font-family="Arial, sans-serif" font-size="10" fill="#333">G9</text><rect x="408" y="334" width="28" height="28" rx="4" ry="4" fill="#e0e0e0" stroke="#888" stroke-width="1.5"/><text x="422" y="349" text-anchor="middle" dominant-baseline="central" font-family="Arial, sans-serif" font-size="10" fill="#333">G10</text><rect x="442" y="334" width="28" height="28" rx="4" ry="4" fill="#e0e0e0" stroke="#888" stroke-width="1.5"/><text x="456" y="349" text-anchor="middle" dominant-baseline="central" font-family="Arial, sans-serif" font-size="10" fill="#333">G11</text><rect x="508" y="334" width="28" height="28" rx="4" ry="4" fill="#e0e0e0" stroke="#888" stroke-width="1.5"/><text x="522" y="349" text-anchor="middle" dominant-baseline="central" font-family="Arial, sans-serif" font-size="10" fill="#333">G12</text><rect x="542" y="334" width="28" height="28" rx="4" ry="4" fill="#e0e0e0" stroke="#888" stroke-width="1.5"/><text x="556" y="349" text-anchor="middle" dominant-baseline="central" font-family="Arial, sans-serif" font-size="10" fill="#333">G13</text><rect x="576" y="334" width="28" height="28" rx="4" ry="4" fill="#e0e0e0" stroke="#888" stroke-width="1.5"/><text x="590" y="349" text-anchor="middle" dominant-baseline="central" font-family="Arial, sans-serif" font-size="10" fill="#333">G14</text><text x="62" y="383" text-anchor="end" dominant-baseline="central" font-family="Arial, sans-serif" font-size="13" font-weight="bold" fill="#444">H</text>
<rect x="70" y="368" width="28" height="28" rx="4" ry="4" fill="#e0e0e0" stroke="#888" stroke-width="1.5"/><text x="84" y="383" text-anchor="middle" dominant-baseline="central" font-family="Arial, sans-serif" font-size="10" fill="#333">H1</text><rect x="104" y="368" width="28" height="28" rx="4" ry="4" fill="#e0e0e0" stroke="#888" stroke-width="1.5"/><text x="118" y="383" text-anchor="middle" dominant-baseline="central" font-family="Arial, sans-serif" font-size="10" fill="#333">H2</text><rect x="138" y="368" width="28" height="28" rx="4" ry="4" fill="#e0e0e0" stroke="#888" stroke-width="1.5"/><text x="152" y="383" text-anchor="middle" dominant-baseline="central" font-family="Arial, sans-serif" font-size="10" fill="#333">H3</text><rect x="204" y="368" width="28" height="28" rx="4" ry="4" fill="#e0e0e0" stroke="#888" stroke-width="1.5"/><text x="218" y="383" text-anchor="middle" dominant-baseline="central" font-family="Arial, sans-serif" font-size="10" fill="#333">H4</text><rect x="238" y="368" width="28" height="28" rx="4" ry="4" fill="#e0e0e0" stroke="#888" stroke-width="1.5"/><text x="252" y="383" text-anchor="middle" dominant-baseline="central" font-family="Arial, sans-serif" font-size="10" fill="#333">H5</text><rect x="272" y="368" width="28" height="28" rx="4" ry="4" fill="#e0e0e0" stroke="#888" stroke-width="1.5"/><text x="286" y="383" text-anchor="middle" dominant-baseline="central" font-family="Arial, sans-serif" font-size="10" fill="#333">H6</text><rect x="306" y="368" width="28" height="28" rx="4" ry="4" fill="#e0e0e0" stroke="#888" stroke-width="1.5"/><text x="320" y="383" text-anchor="middle" dominant-baseline="central" font-family="Arial, sans-serif" font-size="10" fill="#333">H7</text><rect x="340" y="368" width="28" height="28" rx="4" ry="4" fill="#e0e0e0" stroke="#888" stroke-width="1.5"/><text x="354" y="383" text-anchor="middle" dominant-baseline="central" font-family="Arial, sans-serif" font-size="10" fill="#333">H8</text><rect x="374" y="368" width="28" height="28" rx="4" ry="4" fill="#e0e0e0" stroke="#888" stroke-width="1.5"/><text x="388" y="383" text-anchor="middle" dominant-baseline="central" font-family="Arial, sans-serif" font-size="10" fill="#333">H9</text><rect x="408" y="368" width="28" height="28" rx="4" ry="4" fill="#e0e0e0" stroke="#888" stroke-width="1.5"/><text x="422" y="383" text-anchor="middle" dominant-baseline="central" font-family="Arial, sans-serif" font-size="10" fill="#333">H10</text><rect x="442" y="368" width="28" height="28" rx="4" ry="4" fill="#e0e0e0" stroke="#888" stroke-width="1.5"/><text x="456" y="383" text-anchor="middle" dominant-baseline="central" font-family="Arial, sans-serif" font-size="10" fill="#333">H11</text><rect x="508" y="368" width="28" height="28" rx="4" ry="4" fill="#e0e0e0" stroke="#888" stroke-width="1.5"/><text x="522" y="383" text-anchor="middle" dominant-baseline="central" font-family="Arial, sans-serif" font-size="10" fill="#333">H12</text><rect x="542" y="368" width="28" height="28" rx="4" ry="4" fill="#e0e0e0" stroke="#888" stroke-width="1.5"/><text x="556" y="383" text-anchor="middle" dominant-baseline="central" font-family="Arial, sans-serif" font-size="10" fill="#333">H13</text><rect x="576" y="368" width="28" height="28" rx="4" ry="4" fill="#e0e0e0" stroke="#888" stroke-width="1.5"/><text x="590" y="383" text-anchor="middle" dominant-baseline="central" font-family="Arial, sans-serif" font-size="10" fill="#333">H14</text><text x="62" y="427" text-anchor="end" dominant-baseline="central" font-family="Arial, sans-serif" font-size="13" font-weight="bold" fill="#444">W</text>
<rect x="70" y="412" width="28" height="28" rx="4" ry="4" fill="#a8d5f2" stroke="#2e75b6" stroke-width="1.5"/><text x="84" y="427" text-anchor="middle" dominant-baseline="central" font-family="Arial, sans-serif" font-size="10" fill="#333">W1</text><text x="84" y="437" text-anchor="middle" font-size="8" fill="#2e75b6">&#9855;</text><rect x="104" y="412" width="28" height="28" rx="4" ry="4" fill="#a8d5f2" stroke="#2e75b6" stroke-width="1.5"/><text x="118" y="427" text-anchor="middle" dominant-baseline="central" font-family="Arial, sans-serif" font-size="10" fill="#333">W2</text><text x="118" y="437" text-anchor="middle" font-size="8" fill="#2e75b6">&#9855;</text><rect x="508" y="412" width="28" height="28" rx="4" ry="4" fill="#a8d5f2" stroke="#2e75b6" stroke-width="1.5"/><text x="522" y="427" text-anchor="middle" dominant-baseline="central" font-family="Arial, sans-serif" font-size="10" fill="#333">W3</text><text x="522" y="437" text-anchor="middle" font-size="8" fill="#2e75b6">&#9855;</text><rect x="542" y="412" width="28" height="28" rx="4" ry="4" fill="#c5e0b4" stroke="#548235" stroke-width="1.5"/><text x="556" y="427" text-anchor="middle" dominant-baseline="central" font-family="Arial, sans-serif" font-size="10" fill="#333">W4</text><text x="70" y="462" font-family="Arial, sans-serif" font-size="11" font-weight="bold" fill="#444">Legend:</text>
<rect x="70" y="474" width="16" height="16" rx="3" ry="3" fill="#e0e0e0" stroke="#888" stroke-width="1.5"/><text x="92" y="486" font-family="Arial, sans-serif" font-size="11" fill="#444">Regular</text>
<rect x="190" y="474" width="16" height="16" rx="3" ry="3" fill="#ffd966" stroke="#b8860b" stroke-width="1.5"/><text x="212" y="486" font-family="Arial, sans-serif" font-size="11" fill="#444">Premium</text>
<rect x="310" y="474" width="16" height="16" rx="3" ry="3" fill="#a8d5f2" stroke="#2e75b6" stroke-width="1.5"/><text x="332" y="486" font-family="Arial, sans-serif" font-size="11" fill="#444">Wheelchair</text>
<rect x="430" y="474" width="16" height="16" rx="3" ry="3" fill="#c5e0b4" stroke="#548235" stroke-width="1.5"/><text x="452" y="486" font-family="Arial, sans-serif" font-size="11" fill="#444">Companion</text>
</svg>
