<svg xmlns="http://www.w3.org/2000/svg" viewBox="0 0 624 532" width="624" height="532" font-family="'Segoe UI', Arial, sans-serif">
<rect width="100%" height="100%" fill="#f8f8f8" rx="12"/>
<rect x="110" y="40" width="444" height="28" rx="4" fill="#444" />
<text x="332" y="58" text-anchor="middle" fill="#fff" font-size="13" font-weight="600" letter-spacing="3">SCREEN</text>
<text x="126" y="100" text-anchor="middle" font-size="13" fill="#666" font-weight="600">1</text>
<text x="202" y="100" text-anchor="middle" font-size="13" fill="#666" font-weight="600">2</text>
<text x="254" y="100" text-anchor="middle" font-size="13" fill="#666" font-weight="600">3</text>
<text x="306" y="100" text-anchor="middle" font-size="13" fill="#666" font-weight="600">4</text>
<text x="358" y="100" text-anchor="middle" font-size="13" fill="#666" font-weight="600">5</text>
<text x="410" y="100" text-anchor="middle" font-size="13" fill="#666" font-weight="600">6</text>
<text x="462" y="100" text-anchor="middle" font-size="13" fill="#666" font-weight="600">7</text>
<text x="538" y="100" text-anchor="middle" font-size="13" fill="#666" font-weight="600">8</text>
<text x="76" y="141" text-anchor="middle" font-size="14" fill="#555" font-weight="600">Row A</text>
<circle cx="126" cy="136" r="16" fill="#b8d4f0" stroke="#5a9bd5" stroke-width="1.5"/>
<circle cx="202" cy="136" r="16" fill="#b8d4f0" stroke="#5a9bd5" stroke-width="1.5"/>
<circle cx="254" cy="136" r="16" fill="#b8d4f0" stroke="#5a9bd5" stroke-width="1.5"/>
<circle cx="306" cy="136" r="16" fill="#b8d4f0" stroke="#5a9bd5" stroke-width="1.5"/>
<circle cx="358" cy="136" r="16" fill="#b8d4f0" stroke="#5a9bd5" stroke-width="1.5"/>
<circle cx="410" cy="136" r="16" fill="#b8d4f0" stroke="#5a9bd5" stroke-width="1.5"/>
<circle cx="462" cy="136" r="16" fill="#b8d4f0" stroke="#5a9bd5" stroke-width="1.5"/>
<circle cx="538" cy="136" r="16" fill="#b8d4f0" stroke="#5a9bd5" stroke-width="1.5"/>
<text x="76" y="193" text-anchor="middle" font-size="14" fill="#555" font-weight="600">Row B</text>
<circle cx="126" cy="188" r="16" fill="#b8d4f0" stroke="#5a9bd5" stroke-width="1.5"/>
<circle cx="202" cy="188" r="16" fill="#b8d4f0" stroke="#5a9bd5" stroke-width="1.5"/>
<circle cx="254" cy="188" r="16" fill="#b8d4f0" stroke="#5a9bd5" stroke-width="1.5"/>
<circle cx="306" cy="188" r="16" fill="#b8d4f0" stroke="#5a9bd5" stroke-width="1.5"/>
<circle cx="358" cy="188" r="16" fill="#b8d4f0" stroke="#5a9bd5" stroke-width="1.5"/>
<circle cx="410" cy="188" r="16" fill="#b8d4f0" stroke="#5a9bd5" stroke-width="1.5"/>
<circle cx="462" cy="188" r="16" fill="#b8d4f0" stroke="#5a9bd5" stroke-width="1.5"/>
<circle cx="538" cy="188" r="16" fill="#b8d4f0" stroke="#5a9bd5" stroke-width="1.5"/>
<text x="76" y="245" text-anchor="middle" font-size="14" fill="#555" font-weight="600">Row C</text>
<circle cx="126" cy="240" r="16" fill="#b8d4f0" stroke="#5a9bd5" stroke-width="1.5"/>
<circle cx="202" cy="240" r="16" fill="#b8d4f0" stroke="#5a9bd5" stroke-width="1.5"/>
<circle cx="254" cy="240" r="16" fill="#b8d4f0" stroke="#5a9bd5" stroke-width="1.5"/>
<circle cx="306" cy="240" r="16" fill="#fce4b8" stroke="#e6a817" stroke-width="1.5"/>
<text x="306" y="245" text-anchor="middle" font-size="15" fill="#c48800">★</text>
<circle cx="358" cy="240" r="16" fill="#fce4b8" stroke="#e6a817" stroke-width="1.5"/>
<text x="358" y="245" text-anchor="middle" font-size="15" fill="#c48800">★</text>
<circle cx="410" cy="240" r="16" fill="#b8d4f0" stroke="#5a9bd5" stroke-width="1.5"/>
<circle cx="462" cy="240" r="16" fill="#b8d4f0" stroke="#5a9bd5" stroke-width="1.5"/>
<circle cx="538" cy="240" r="16" fill="#b8d4f0" stroke="#5a9bd5" stroke-width="1.5"/>
<text x="76" y="297" text-anchor="middle" font-size="14" fill="#555" font-weight="600">Row D</text>
<circle cx="126" cy="292" r="16" fill="#b8d4f0" stroke="#5a9bd5" stroke-width="1.5"/>
<circle cx="202" cy="292" r="16" fill="#b8d4f0" stroke="#5a9bd5" stroke-width="1.5"/>
<circle cx="254" cy="292" r="16" fill="#fce4b8" stroke="#e6a817" stroke-width="1.5"/>
<text x="254" y="297" text-anchor="middle" font-size="15" fill="#c48800">★</text>
<circle cx="306" cy="292" r="16" fill="#fce4b8" stroke="#e6a817" stroke-width="1.5"/>
<text x="306" y="297" text-anchor="middle" font-size="15" fill="#c48800">★</text>
<circle cx="358" cy="292" r="16" fill="#fce4b8" stroke="#e6a817" stroke-width="1.5"/>
<text x="358" y="297" text-anchor="middle" font-size="15" fill="#c48800">★</text>
<circle cx="410" cy="292" r="16" fill="#fce4b8" stroke="#e6a817" stroke-width="1.5"/>
<text x="410" y="297" text-anchor="middle" font-size="15" fill="#c48800">★</text>
<circle cx="462" cy="292" r="16" fill="#b8d4f0" stroke="#5a9bd5" stroke-width="1.5"/>
<circle cx="538" cy="292" r="16" fill="#b8d4f0" stroke="#5a9bd5" stroke-width="1.5"/>
<text x="76" y="349" text-anchor="middle" font-size="14" fill="#555" font-weight="600">Row E</text>
<circle cx="126" cy="344" r="16" fill="#b8d4f0" stroke="#5a9bd5" stroke-width="1.5"/>
<circle cx="202" cy="344" r="16" fill="#b8d4f0" stroke="#5a9bd5" stroke-width="1.5"/>
<circle cx="254" cy="344" r="16" fill="#fce4b8" stroke="#e6a817" stroke-width="1.5"/>
<text x="254" y="349" text-anchor="middle" font-size="15" fill="#c48800">★</text>
<circle cx="306" cy="344" r="16" fill="#fce4b8" stroke="#e6a817" stroke-width="1.5"/>
<text x="306" y="349" text-anchor="middle" font-size="15" fill="#c48800">★</text>
<circle cx="358" cy="344" r="16" fill="#fce4b8" stroke="#e6a817" stroke-width="1.5"/>
<text x="358" y="349" text-anchor="middle" font-size="15" fill="#c48800">★</text>
<circle cx="410" cy="344" r="16" fill="#fce4b8" stroke="#e6a817" stroke-width="1.5"/>
<text x="410" y="349" text-anchor="middle" font-size="15" fill="#c48800">★</text>
<circle cx="462" cy="344" r="16" fill="#b8d4f0" stroke="#5a9bd5" stroke-width="1.5"/>
<circle cx="538" cy="344" r="16" fill="#b8d4f0" stroke="#5a9bd5" stroke-width="1.5"/>
<text x="76" y="401" text-anchor="middle" font-size="14" fill="#555" font-weight="600">Row F</text>
<rect x="108" y="380" width="36" height="32" rx="6" fill="#c8e6c9" stroke="#43a047" stroke-width="1.5"/>
<text x="126" y="402" text-anchor="middle" font-size="17">♿</text>
<circle cx="202" cy="396" r="16" fill="#7e57c2" stroke="#5e35b1" stroke-width="1.5"/>
<text x="202" y="403" text-anchor="middle" font-size="20" font-weight="700" fill="#fff">+</text>
<circle cx="254" cy="396" r="16" fill="#b8d4f0" stroke="#5a9bd5" stroke-width="1.5"/>
<circle cx="306" cy="396" r="16" fill="#b8d4f0" stroke="#5a9bd5" stroke-width="1.5"/>
<circle cx="358" cy="396" r="16" fill="#b8d4f0" stroke="#5a9bd5" stroke-width="1.5"/>
<circle cx="410" cy="396" r="16" fill="#b8d4f0" stroke="#5a9bd5" stroke-width="1.5"/>
<circle cx="462" cy="396" r="16" fill="#7e57c2" stroke="#5e35b1" stroke-width="1.5"/>
<text x="462" y="403" text-anchor="middle" font-size="20" font-weight="700" fill="#fff">+</text>
<rect x="520" y="380" width="36" height="32" rx="6" fill="#c8e6c9" stroke="#43a047" stroke-width="1.5"/>
<text x="538" y="402" text-anchor="middle" font-size="17">♿</text>
<line x1="164" y1="112" x2="164" y2="420" stroke="#bbb" stroke-width="2" stroke-dasharray="6,4"/>
<text x="164" y="436" text-anchor="middle" font-size="11" fill="#999" font-style="italic">aisle</text>
<line x1="500" y1="112" x2="500" y2="420" stroke="#bbb" stroke-width="2" stroke-dasharray="6,4"/>
<text x="500" y="436" text-anchor="middle" font-size="11" fill="#999" font-style="italic">aisle</text>
<line x1="332" y1="112" x2="332" y2="420" stroke="#bbb" stroke-width="2" stroke-dasharray="6,4"/>
<text x="332" y="436" text-anchor="middle" font-size="11" fill="#999" font-style="italic">aisle</text>
<circle cx="110" cy="466" r="9" fill="#b8d4f0" stroke="#5a9bd5" stroke-width="1.2"/>
<text x="126" y="470" font-size="12" fill="#555">Standard seat</text>
<circle cx="330" cy="466" r="9" fill="#fce4b8" stroke="#e6a817" stroke-width="1.2"/>
<text x="330" y="470" text-anchor="middle" font-size="10" fill="#c48800">★</text>
<text x="346" y="470" font-size="12" fill="#555">Premium seat</text>
<rect x="99" y="483" width="22" height="18" rx="4" fill="#c8e6c9" stroke="#43a047" stroke-width="1.2"/>
<text x="110" y="496" text-anchor="middle" font-size="11">♿</text>
<text x="126" y="496" font-size="12" fill="#555">Wheelchair space</text>
<circle cx="330" cy="492" r="9" fill="#7e57c2" stroke="#5e35b1" stroke-width="1.2"/>
<text x="330" y="497" text-anchor="middle" font-size="14" font-weight="700" fill="#fff">+</text>
<text x="346" y="496" font-size="12" fill="#555">Companion seat</text>
</svg>
